<?xml version="1.0" standalone="no"?><!DOCTYPE svg PUBLIC "-//W3C//DTD SVG 1.1//EN" "http://www.w3.org/Graphics/SVG/1.1/DTD/svg11.dtd"><svg height="1247.24409447" width="1247.24409447" class="acrylic" version="1.1" xmlns="http://www.w3.org/2000/svg" xmlns:xlink="http://www.w3.org/1999/xlink"><defs xmlns="http://www.w3.org/1999/xhtml"><style type="text/css"><![CDATA[
svg { }
line { stroke: rgb(255, 0, 0); stroke-width: 1pt; }]]></style></defs><line x1="5mm" x2="43.099999999999994mm" y1="5mm" y2="5mm"/><line x1="43.099999999999994mm" x2="43.099999999999994mm" y1="5mm" y2="10mm"/><line x1="43.099999999999994mm" x2="5mm" y1="10mm" y2="19.992502755065196mm"/><line x1="5mm" x2="5mm" y1="19.992502755065196mm" y2="5mm"/><line x1="5mm" x2="43.099999999999994mm" y1="24.992502755065196mm" y2="15.000000000000002mm"/><line x1="43.099999999999994mm" x2="43.099999999999994mm" y1="15.000000000000002mm" y2="29.992502755065196mm"/><line x1="43.099999999999994mm" x2="5mm" y1="29.992502755065196mm" y2="29.992502755065196mm"/><line x1="5mm" x2="5mm" y1="29.992502755065196mm" y2="24.992502755065196mm"/><line x1="5mm" x2="43.099999999999994mm" y1="34.992502755065196mm" y2="34.992502755065196mm"/><line x1="43.099999999999994mm" x2="43.099999999999994mm" y1="34.992502755065196mm" y2="39.992502755065196mm"/><line x1="43.099999999999994mm" x2="5mm" y1="39.992502755065196mm" y2="49.98500551013039mm"/><line x1="5mm" x2="5mm" y1="49.98500551013039mm" y2="34.992502755065196mm"/><line x1="48.099999999999994mm" x2="60.68163881942085mm" y1="5mm" y2="5mm"/><line x1="60.68163881942085mm" x2="53.099999999999994mm" y1="5mm" y2="43.099999999999994mm"/><line x1="53.099999999999994mm" x2="48.099999999999994mm" y1="43.099999999999994mm" y2="43.099999999999994mm"/><line x1="48.099999999999994mm" x2="48.099999999999994mm" y1="43.099999999999994mm" y2="5mm"/><line x1="65.68163881942084mm" x2="70.68163881942084mm" y1="5mm" y2="5mm"/><line x1="70.68163881942084mm" x2="70.68163881942084mm" y1="5mm" y2="43.099999999999994mm"/><line x1="70.68163881942084mm" x2="58.09999999999999mm" y1="43.099999999999994mm" y2="43.099999999999994mm"/><line x1="58.09999999999999mm" x2="65.68163881942084mm" y1="43.099999999999994mm" y2="5mm"/><line x1="75.68163881942084mm" x2="88.26327763884169mm" y1="5mm" y2="5mm"/><line x1="88.26327763884169mm" x2="80.68163881942084mm" y1="5mm" y2="43.099999999999994mm"/><line x1="80.68163881942084mm" x2="75.68163881942084mm" y1="43.099999999999994mm" y2="43.099999999999994mm"/><line x1="75.68163881942084mm" x2="75.68163881942084mm" y1="43.099999999999994mm" y2="5mm"/><line x1="100.84491645826255mm" x2="138.94491645826253mm" y1="5mm" y2="5mm"/><line x1="138.94491645826253mm" x2="138.94491645826253mm" y1="5mm" y2="10mm"/><line x1="138.94491645826253mm" x2="100.84491645826255mm" y1="10mm" y2="19.992502755065196mm"/><line x1="100.84491645826255mm" x2="100.84491645826255mm" y1="19.992502755065196mm" y2="5mm"/><line x1="100.84491645826255mm" x2="138.94491645826253mm" y1="24.992502755065196mm" y2="15.000000000000002mm"/><line x1="138.94491645826253mm" x2="138.94491645826253mm" y1="15.000000000000002mm" y2="29.992502755065196mm"/><line x1="138.94491645826253mm" x2="100.84491645826255mm" y1="29.992502755065196mm" y2="29.992502755065196mm"/><line x1="100.84491645826255mm" x2="100.84491645826255mm" y1="29.992502755065196mm" y2="24.992502755065196mm"/><line x1="100.84491645826255mm" x2="138.94491645826253mm" y1="34.992502755065196mm" y2="34.992502755065196mm"/><line x1="138.94491645826253mm" x2="138.94491645826253mm" y1="34.992502755065196mm" y2="39.992502755065196mm"/><line x1="138.94491645826253mm" x2="100.84491645826255mm" y1="39.992502755065196mm" y2="49.98500551013039mm"/><line x1="100.84491645826255mm" x2="100.84491645826255mm" y1="49.98500551013039mm" y2="34.992502755065196mm"/><line x1="143.94491645826253mm" x2="151.50635834169174mm" y1="5mm" y2="5mm"/><line x1="151.50635834169174mm" x2="148.94491645826253mm" y1="5mm" y2="43.099999999999994mm"/><line x1="148.94491645826253mm" x2="143.94491645826253mm" y1="43.099999999999994mm" y2="43.099999999999994mm"/><line x1="143.94491645826253mm" x2="143.94491645826253mm" y1="43.099999999999994mm" y2="5mm"/><line x1="156.50635834169174mm" x2="161.50635834169174mm" y1="5mm" y2="5mm"/><line x1="161.50635834169174mm" x2="161.50635834169174mm" y1="5mm" y2="43.099999999999994mm"/><line x1="161.50635834169174mm" x2="153.94491645826253mm" y1="43.099999999999994mm" y2="43.099999999999994mm"/><line x1="153.94491645826253mm" x2="156.50635834169174mm" y1="43.099999999999994mm" y2="5mm"/><line x1="166.50635834169174mm" x2="174.06780022512095mm" y1="5mm" y2="5mm"/><line x1="174.06780022512095mm" x2="171.50635834169174mm" y1="5mm" y2="43.099999999999994mm"/><line x1="171.50635834169174mm" x2="166.50635834169174mm" y1="43.099999999999994mm" y2="43.099999999999994mm"/><line x1="166.50635834169174mm" x2="166.50635834169174mm" y1="43.099999999999994mm" y2="5mm"/><line x1="181.62924210855016mm" x2="219.72924210855015mm" y1="5mm" y2="5mm"/><line x1="219.72924210855015mm" x2="219.72924210855015mm" y1="5mm" y2="10mm"/><line x1="219.72924210855015mm" x2="181.62924210855016mm" y1="10mm" y2="19.992502755065196mm"/><line x1="181.62924210855016mm" x2="181.62924210855016mm" y1="19.992502755065196mm" y2="5mm"/><line x1="181.62924210855016mm" x2="219.72924210855015mm" y1="24.992502755065196mm" y2="15.000000000000002mm"/><line x1="219.72924210855015mm" x2="219.72924210855015mm" y1="15.000000000000002mm" y2="29.992502755065196mm"/><line x1="219.72924210855015mm" x2="181.62924210855016mm" y1="29.992502755065196mm" y2="29.992502755065196mm"/><line x1="181.62924210855016mm" x2="181.62924210855016mm" y1="29.992502755065196mm" y2="24.992502755065196mm"/><line x1="181.62924210855016mm" x2="219.72924210855015mm" y1="34.992502755065196mm" y2="34.992502755065196mm"/><line x1="219.72924210855015mm" x2="219.72924210855015mm" y1="34.992502755065196mm" y2="39.992502755065196mm"/><line x1="219.72924210855015mm" x2="181.62924210855016mm" y1="39.992502755065196mm" y2="49.98500551013039mm"/><line x1="181.62924210855016mm" x2="181.62924210855016mm" y1="49.98500551013039mm" y2="34.992502755065196mm"/><line x1="224.72924210855015mm" x2="232.29068399197936mm" y1="5mm" y2="5mm"/><line x1="232.29068399197936mm" x2="229.72924210855015mm" y1="5mm" y2="43.099999999999994mm"/><line x1="229.72924210855015mm" x2="224.72924210855015mm" y1="43.099999999999994mm" y2="43.099999999999994mm"/><line x1="224.72924210855015mm" x2="224.72924210855015mm" y1="43.099999999999994mm" y2="5mm"/><line x1="237.29068399197936mm" x2="242.29068399197936mm" y1="5mm" y2="5mm"/><line x1="242.29068399197936mm" x2="242.29068399197936mm" y1="5mm" y2="43.099999999999994mm"/><line x1="242.29068399197936mm" x2="234.72924210855015mm" y1="43.099999999999994mm" y2="43.099999999999994mm"/><line x1="234.72924210855015mm" x2="237.29068399197936mm" y1="43.099999999999994mm" y2="5mm"/><line x1="247.29068399197936mm" x2="254.85212587540857mm" y1="5mm" y2="5mm"/><line x1="254.85212587540857mm" x2="252.29068399197936mm" y1="5mm" y2="43.099999999999994mm"/><line x1="252.29068399197936mm" x2="247.29068399197936mm" y1="43.099999999999994mm" y2="43.099999999999994mm"/><line x1="247.29068399197936mm" x2="247.29068399197936mm" y1="43.099999999999994mm" y2="5mm"/><line x1="262.41356775883776mm" x2="300.5135677588378mm" y1="5mm" y2="5mm"/><line x1="300.5135677588378mm" x2="300.5135677588378mm" y1="5mm" y2="10mm"/><line x1="300.5135677588378mm" x2="262.41356775883776mm" y1="10mm" y2="19.992502755065196mm"/><line x1="262.41356775883776mm" x2="262.41356775883776mm" y1="19.992502755065196mm" y2="5mm"/><line x1="262.41356775883776mm" x2="300.5135677588378mm" y1="24.992502755065196mm" y2="15.000000000000002mm"/><line x1="300.5135677588378mm" x2="300.5135677588378mm" y1="15.000000000000002mm" y2="29.992502755065196mm"/><line x1="300.5135677588378mm" x2="262.41356775883776mm" y1="29.992502755065196mm" y2="29.992502755065196mm"/><line x1="262.41356775883776mm" x2="262.41356775883776mm" y1="29.992502755065196mm" y2="24.992502755065196mm"/><line x1="262.41356775883776mm" x2="300.5135677588378mm" y1="34.992502755065196mm" y2="34.992502755065196mm"/><line x1="300.5135677588378mm" x2="300.5135677588378mm" y1="34.992502755065196mm" y2="39.992502755065196mm"/><line x1="300.5135677588378mm" x2="262.41356775883776mm" y1="39.992502755065196mm" y2="49.98500551013039mm"/><line x1="262.41356775883776mm" x2="262.41356775883776mm" y1="49.98500551013039mm" y2="34.992502755065196mm"/><line x1="5mm" x2="17.58163881942085mm" y1="55.099999999999994mm" y2="55.099999999999994mm"/><line x1="17.58163881942085mm" x2="10mm" y1="55.099999999999994mm" y2="93.19999999999999mm"/><line x1="10mm" x2="5mm" y1="93.19999999999999mm" y2="93.19999999999999mm"/><line x1="5mm" x2="5mm" y1="93.19999999999999mm" y2="55.099999999999994mm"/><line x1="22.58163881942085mm" x2="27.58163881942085mm" y1="55.099999999999994mm" y2="55.099999999999994mm"/><line x1="27.58163881942085mm" x2="27.58163881942085mm" y1="55.099999999999994mm" y2="93.19999999999999mm"/><line x1="27.58163881942085mm" x2="15mm" y1="93.19999999999999mm" y2="93.19999999999999mm"/><line x1="15mm" x2="22.58163881942085mm" y1="93.19999999999999mm" y2="55.099999999999994mm"/><line x1="32.581638819420846mm" x2="45.1632776388417mm" y1="55.099999999999994mm" y2="55.099999999999994mm"/><line x1="45.1632776388417mm" x2="37.581638819420846mm" y1="55.099999999999994mm" y2="93.19999999999999mm"/><line x1="37.581638819420846mm" x2="32.581638819420846mm" y1="93.19999999999999mm" y2="93.19999999999999mm"/><line x1="32.581638819420846mm" x2="32.581638819420846mm" y1="93.19999999999999mm" y2="55.099999999999994mm"/><line x1="57.74491645826255mm" x2="95.84491645826255mm" y1="55.099999999999994mm" y2="55.099999999999994mm"/><line x1="95.84491645826255mm" x2="95.84491645826255mm" y1="55.099999999999994mm" y2="60.099999999999994mm"/><line x1="95.84491645826255mm" x2="57.74491645826255mm" y1="60.099999999999994mm" y2="70.09250275506518mm"/><line x1="57.74491645826255mm" x2="57.74491645826255mm" y1="70.09250275506518mm" y2="55.099999999999994mm"/><line x1="57.74491645826255mm" x2="95.84491645826255mm" y1="75.0925027550652mm" y2="65.10000000000001mm"/><line x1="95.84491645826255mm" x2="95.84491645826255mm" y1="65.10000000000001mm" y2="80.0925027550652mm"/><line x1="95.84491645826255mm" x2="57.74491645826255mm" y1="80.0925027550652mm" y2="80.0925027550652mm"/><line x1="57.74491645826255mm" x2="57.74491645826255mm" y1="80.0925027550652mm" y2="75.0925027550652mm"/><line x1="57.74491645826255mm" x2="95.84491645826255mm" y1="85.0925027550652mm" y2="85.0925027550652mm"/><line x1="95.84491645826255mm" x2="95.84491645826255mm" y1="85.0925027550652mm" y2="90.0925027550652mm"/><line x1="95.84491645826255mm" x2="57.74491645826255mm" y1="90.0925027550652mm" y2="100.08500551013039mm"/><line x1="57.74491645826255mm" x2="57.74491645826255mm" y1="100.08500551013039mm" y2="85.0925027550652mm"/><line x1="100.84491645826255mm" x2="118.15420007895412mm" y1="55.099999999999994mm" y2="55.099999999999994mm"/><line x1="118.15420007895412mm" x2="105.84491645826255mm" y1="55.099999999999994mm" y2="93.19999999999999mm"/><line x1="105.84491645826255mm" x2="100.84491645826255mm" y1="93.19999999999999mm" y2="93.19999999999999mm"/><line x1="100.84491645826255mm" x2="100.84491645826255mm" y1="93.19999999999999mm" y2="55.099999999999994mm"/><line x1="123.15420007895412mm" x2="128.15420007895412mm" y1="55.099999999999994mm" y2="55.099999999999994mm"/><line x1="128.15420007895412mm" x2="128.15420007895412mm" y1="55.099999999999994mm" y2="93.19999999999999mm"/><line x1="128.15420007895412mm" x2="110.84491645826255mm" y1="93.19999999999999mm" y2="93.19999999999999mm"/><line x1="110.84491645826255mm" x2="123.15420007895412mm" y1="93.19999999999999mm" y2="55.099999999999994mm"/><line x1="133.15420007895412mm" x2="150.46348369964568mm" y1="55.099999999999994mm" y2="55.099999999999994mm"/><line x1="150.46348369964568mm" x2="138.15420007895412mm" y1="55.099999999999994mm" y2="93.19999999999999mm"/><line x1="138.15420007895412mm" x2="133.15420007895412mm" y1="93.19999999999999mm" y2="93.19999999999999mm"/><line x1="133.15420007895412mm" x2="133.15420007895412mm" y1="93.19999999999999mm" y2="55.099999999999994mm"/><line x1="167.77276732033727mm" x2="205.87276732033726mm" y1="55.099999999999994mm" y2="55.099999999999994mm"/><line x1="205.87276732033726mm" x2="205.87276732033726mm" y1="55.099999999999994mm" y2="60.099999999999994mm"/><line x1="205.87276732033726mm" x2="167.77276732033727mm" y1="60.099999999999994mm" y2="65.19695952526848mm"/><line x1="167.77276732033727mm" x2="167.77276732033727mm" y1="65.19695952526848mm" y2="55.099999999999994mm"/><line x1="167.77276732033727mm" x2="205.87276732033726mm" y1="70.19695952526848mm" y2="65.1mm"/><line x1="205.87276732033726mm" x2="205.87276732033726mm" y1="65.1mm" y2="75.19695952526848mm"/><line x1="205.87276732033726mm" x2="167.77276732033727mm" y1="75.19695952526848mm" y2="75.19695952526848mm"/><line x1="167.77276732033727mm" x2="167.77276732033727mm" y1="75.19695952526848mm" y2="70.19695952526848mm"/><line x1="167.77276732033727mm" x2="205.87276732033726mm" y1="80.19695952526848mm" y2="80.19695952526848mm"/><line x1="205.87276732033726mm" x2="205.87276732033726mm" y1="80.19695952526848mm" y2="85.19695952526848mm"/><line x1="205.87276732033726mm" x2="167.77276732033727mm" y1="85.19695952526848mm" y2="90.29391905053697mm"/><line x1="167.77276732033727mm" x2="167.77276732033727mm" y1="90.29391905053697mm" y2="80.19695952526848mm"/><line x1="210.87276732033726mm" x2="223.4544061397581mm" y1="55.099999999999994mm" y2="55.099999999999994mm"/><line x1="223.4544061397581mm" x2="215.87276732033726mm" y1="55.099999999999994mm" y2="93.19999999999999mm"/><line x1="215.87276732033726mm" x2="210.87276732033726mm" y1="93.19999999999999mm" y2="93.19999999999999mm"/><line x1="210.87276732033726mm" x2="210.87276732033726mm" y1="93.19999999999999mm" y2="55.099999999999994mm"/><line x1="228.4544061397581mm" x2="233.4544061397581mm" y1="55.099999999999994mm" y2="55.099999999999994mm"/><line x1="233.4544061397581mm" x2="233.4544061397581mm" y1="55.099999999999994mm" y2="93.19999999999999mm"/><line x1="233.4544061397581mm" x2="220.87276732033726mm" y1="93.19999999999999mm" y2="93.19999999999999mm"/><line x1="220.87276732033726mm" x2="228.4544061397581mm" y1="93.19999999999999mm" y2="55.099999999999994mm"/><line x1="238.4544061397581mm" x2="251.03604495917895mm" y1="55.099999999999994mm" y2="55.099999999999994mm"/><line x1="251.03604495917895mm" x2="243.4544061397581mm" y1="55.099999999999994mm" y2="93.19999999999999mm"/><line x1="243.4544061397581mm" x2="238.4544061397581mm" y1="93.19999999999999mm" y2="93.19999999999999mm"/><line x1="238.4544061397581mm" x2="238.4544061397581mm" y1="93.19999999999999mm" y2="55.099999999999994mm"/><line x1="263.6176837785998mm" x2="301.71768377859985mm" y1="55.099999999999994mm" y2="55.099999999999994mm"/><line x1="301.71768377859985mm" x2="301.71768377859985mm" y1="55.099999999999994mm" y2="60.099999999999994mm"/><line x1="301.71768377859985mm" x2="263.6176837785998mm" y1="60.099999999999994mm" y2="65.19695952526848mm"/><line x1="263.6176837785998mm" x2="263.6176837785998mm" y1="65.19695952526848mm" y2="55.099999999999994mm"/><line x1="263.6176837785998mm" x2="301.71768377859985mm" y1="70.19695952526848mm" y2="65.1mm"/><line x1="301.71768377859985mm" x2="301.71768377859985mm" y1="65.1mm" y2="75.19695952526848mm"/><line x1="301.71768377859985mm" x2="263.6176837785998mm" y1="75.19695952526848mm" y2="75.19695952526848mm"/><line x1="263.6176837785998mm" x2="263.6176837785998mm" y1="75.19695952526848mm" y2="70.19695952526848mm"/><line x1="263.6176837785998mm" x2="301.71768377859985mm" y1="80.19695952526848mm" y2="80.19695952526848mm"/><line x1="301.71768377859985mm" x2="301.71768377859985mm" y1="80.19695952526848mm" y2="85.19695952526848mm"/><line x1="301.71768377859985mm" x2="263.6176837785998mm" y1="85.19695952526848mm" y2="90.29391905053697mm"/><line x1="263.6176837785998mm" x2="263.6176837785998mm" y1="90.29391905053697mm" y2="80.19695952526848mm"/><line x1="5mm" x2="12.561441883429207mm" y1="105.19999999999999mm" y2="105.19999999999999mm"/><line x1="12.561441883429207mm" x2="10mm" y1="105.19999999999999mm" y2="143.29999999999998mm"/><line x1="10mm" x2="5mm" y1="143.29999999999998mm" y2="143.29999999999998mm"/><line x1="5mm" x2="5mm" y1="143.29999999999998mm" y2="105.19999999999999mm"/><line x1="17.561441883429207mm" x2="22.561441883429207mm" y1="105.19999999999999mm" y2="105.19999999999999mm"/><line x1="22.561441883429207mm" x2="22.561441883429207mm" y1="105.19999999999999mm" y2="143.29999999999998mm"/><line x1="22.561441883429207mm" x2="15mm" y1="143.29999999999998mm" y2="143.29999999999998mm"/><line x1="15mm" x2="17.561441883429207mm" y1="143.29999999999998mm" y2="105.19999999999999mm"/><line x1="27.561441883429207mm" x2="35.122883766858415mm" y1="105.19999999999999mm" y2="105.19999999999999mm"/><line x1="35.122883766858415mm" x2="32.56144188342921mm" y1="105.19999999999999mm" y2="143.29999999999998mm"/><line x1="32.56144188342921mm" x2="27.561441883429207mm" y1="143.29999999999998mm" y2="143.29999999999998mm"/><line x1="27.561441883429207mm" x2="27.561441883429207mm" y1="143.29999999999998mm" y2="105.19999999999999mm"/><line x1="42.68432565028762mm" x2="80.78432565028761mm" y1="105.19999999999999mm" y2="105.19999999999999mm"/><line x1="80.78432565028761mm" x2="80.78432565028761mm" y1="105.19999999999999mm" y2="110.19999999999999mm"/><line x1="80.78432565028761mm" x2="42.68432565028762mm" y1="110.19999999999999mm" y2="115.29695952526848mm"/><line x1="42.68432565028762mm" x2="42.68432565028762mm" y1="115.29695952526848mm" y2="105.19999999999999mm"/><line x1="42.68432565028762mm" x2="80.78432565028761mm" y1="120.29695952526848mm" y2="115.19999999999999mm"/><line x1="80.78432565028761mm" x2="80.78432565028761mm" y1="115.19999999999999mm" y2="125.29695952526848mm"/><line x1="80.78432565028761mm" x2="42.68432565028762mm" y1="125.29695952526848mm" y2="125.29695952526848mm"/><line x1="42.68432565028762mm" x2="42.68432565028762mm" y1="125.29695952526848mm" y2="120.29695952526848mm"/><line x1="42.68432565028762mm" x2="80.78432565028761mm" y1="130.29695952526848mm" y2="130.29695952526848mm"/><line x1="80.78432565028761mm" x2="80.78432565028761mm" y1="130.29695952526848mm" y2="135.29695952526848mm"/><line x1="80.78432565028761mm" x2="42.68432565028762mm" y1="135.29695952526848mm" y2="140.39391905053697mm"/><line x1="42.68432565028762mm" x2="42.68432565028762mm" y1="140.39391905053697mm" y2="130.29695952526848mm"/><line x1="85.78432565028761mm" x2="93.34576753371682mm" y1="105.19999999999999mm" y2="105.19999999999999mm"/><line x1="93.34576753371682mm" x2="90.78432565028761mm" y1="105.19999999999999mm" y2="143.29999999999998mm"/><line x1="90.78432565028761mm" x2="85.78432565028761mm" y1="143.29999999999998mm" y2="143.29999999999998mm"/><line x1="85.78432565028761mm" x2="85.78432565028761mm" y1="143.29999999999998mm" y2="105.19999999999999mm"/><line x1="98.34576753371682mm" x2="103.34576753371682mm" y1="105.19999999999999mm" y2="105.19999999999999mm"/><line x1="103.34576753371682mm" x2="103.34576753371682mm" y1="105.19999999999999mm" y2="143.29999999999998mm"/><line x1="103.34576753371682mm" x2="95.78432565028761mm" y1="143.29999999999998mm" y2="143.29999999999998mm"/><line x1="95.78432565028761mm" x2="98.34576753371682mm" y1="143.29999999999998mm" y2="105.19999999999999mm"/><line x1="108.34576753371682mm" x2="115.90720941714603mm" y1="105.19999999999999mm" y2="105.19999999999999mm"/><line x1="115.90720941714603mm" x2="113.34576753371682mm" y1="105.19999999999999mm" y2="143.29999999999998mm"/><line x1="113.34576753371682mm" x2="108.34576753371682mm" y1="143.29999999999998mm" y2="143.29999999999998mm"/><line x1="108.34576753371682mm" x2="108.34576753371682mm" y1="143.29999999999998mm" y2="105.19999999999999mm"/><line x1="123.46865130057523mm" x2="161.56865130057523mm" y1="105.19999999999999mm" y2="105.19999999999999mm"/><line x1="161.56865130057523mm" x2="161.56865130057523mm" y1="105.19999999999999mm" y2="110.19999999999999mm"/><line x1="161.56865130057523mm" x2="123.46865130057523mm" y1="110.19999999999999mm" y2="115.29695952526848mm"/><line x1="123.46865130057523mm" x2="123.46865130057523mm" y1="115.29695952526848mm" y2="105.19999999999999mm"/><line x1="123.46865130057523mm" x2="161.56865130057523mm" y1="120.29695952526848mm" y2="115.19999999999999mm"/><line x1="161.56865130057523mm" x2="161.56865130057523mm" y1="115.19999999999999mm" y2="125.29695952526848mm"/><line x1="161.56865130057523mm" x2="123.46865130057523mm" y1="125.29695952526848mm" y2="125.29695952526848mm"/><line x1="123.46865130057523mm" x2="123.46865130057523mm" y1="125.29695952526848mm" y2="120.29695952526848mm"/><line x1="123.46865130057523mm" x2="161.56865130057523mm" y1="130.29695952526848mm" y2="130.29695952526848mm"/><line x1="161.56865130057523mm" x2="161.56865130057523mm" y1="130.29695952526848mm" y2="135.29695952526848mm"/><line x1="161.56865130057523mm" x2="123.46865130057523mm" y1="135.29695952526848mm" y2="140.39391905053697mm"/><line x1="123.46865130057523mm" x2="123.46865130057523mm" y1="140.39391905053697mm" y2="130.29695952526848mm"/><line x1="166.56865130057523mm" x2="179.15029011999607mm" y1="105.19999999999999mm" y2="105.19999999999999mm"/><line x1="179.15029011999607mm" x2="171.56865130057523mm" y1="105.19999999999999mm" y2="143.29999999999998mm"/><line x1="171.56865130057523mm" x2="166.56865130057523mm" y1="143.29999999999998mm" y2="143.29999999999998mm"/><line x1="166.56865130057523mm" x2="166.56865130057523mm" y1="143.29999999999998mm" y2="105.19999999999999mm"/><line x1="184.15029011999607mm" x2="189.15029011999607mm" y1="105.19999999999999mm" y2="105.19999999999999mm"/><line x1="189.15029011999607mm" x2="189.15029011999607mm" y1="105.19999999999999mm" y2="143.29999999999998mm"/><line x1="189.15029011999607mm" x2="176.56865130057523mm" y1="143.29999999999998mm" y2="143.29999999999998mm"/><line x1="176.56865130057523mm" x2="184.15029011999607mm" y1="143.29999999999998mm" y2="105.19999999999999mm"/><line x1="194.15029011999607mm" x2="206.73192893941692mm" y1="105.19999999999999mm" y2="105.19999999999999mm"/><line x1="206.73192893941692mm" x2="199.15029011999607mm" y1="105.19999999999999mm" y2="143.29999999999998mm"/><line x1="199.15029011999607mm" x2="194.15029011999607mm" y1="143.29999999999998mm" y2="143.29999999999998mm"/><line x1="194.15029011999607mm" x2="194.15029011999607mm" y1="143.29999999999998mm" y2="105.19999999999999mm"/><line x1="219.3135677588378mm" x2="257.41356775883776mm" y1="105.19999999999999mm" y2="105.19999999999999mm"/><line x1="257.41356775883776mm" x2="257.41356775883776mm" y1="105.19999999999999mm" y2="110.19999999999999mm"/><line x1="257.41356775883776mm" x2="219.3135677588378mm" y1="110.19999999999999mm" y2="115.29695952526848mm"/><line x1="219.3135677588378mm" x2="219.3135677588378mm" y1="115.29695952526848mm" y2="105.19999999999999mm"/><line x1="219.3135677588378mm" x2="257.41356775883776mm" y1="120.29695952526848mm" y2="115.19999999999999mm"/><line x1="257.41356775883776mm" x2="257.41356775883776mm" y1="115.19999999999999mm" y2="125.29695952526848mm"/><line x1="257.41356775883776mm" x2="219.3135677588378mm" y1="125.29695952526848mm" y2="125.29695952526848mm"/><line x1="219.3135677588378mm" x2="219.3135677588378mm" y1="125.29695952526848mm" y2="120.29695952526848mm"/><line x1="219.3135677588378mm" x2="257.41356775883776mm" y1="130.29695952526848mm" y2="130.29695952526848mm"/><line x1="257.41356775883776mm" x2="257.41356775883776mm" y1="130.29695952526848mm" y2="135.29695952526848mm"/><line x1="257.41356775883776mm" x2="219.3135677588378mm" y1="135.29695952526848mm" y2="140.39391905053697mm"/><line x1="219.3135677588378mm" x2="219.3135677588378mm" y1="140.39391905053697mm" y2="130.29695952526848mm"/><line x1="262.41356775883776mm" x2="279.72285137952935mm" y1="105.19999999999999mm" y2="105.19999999999999mm"/><line x1="279.72285137952935mm" x2="267.41356775883776mm" y1="105.19999999999999mm" y2="143.29999999999998mm"/><line x1="267.41356775883776mm" x2="262.41356775883776mm" y1="143.29999999999998mm" y2="143.29999999999998mm"/><line x1="262.41356775883776mm" x2="262.41356775883776mm" y1="143.29999999999998mm" y2="105.19999999999999mm"/><line x1="284.72285137952935mm" x2="289.72285137952935mm" y1="105.19999999999999mm" y2="105.19999999999999mm"/><line x1="289.72285137952935mm" x2="289.72285137952935mm" y1="105.19999999999999mm" y2="143.29999999999998mm"/><line x1="289.72285137952935mm" x2="272.41356775883776mm" y1="143.29999999999998mm" y2="143.29999999999998mm"/><line x1="272.41356775883776mm" x2="284.72285137952935mm" y1="143.29999999999998mm" y2="105.19999999999999mm"/><line x1="294.72285137952935mm" x2="312.03213500022093mm" y1="105.19999999999999mm" y2="105.19999999999999mm"/><line x1="312.03213500022093mm" x2="299.72285137952935mm" y1="105.19999999999999mm" y2="143.29999999999998mm"/><line x1="299.72285137952935mm" x2="294.72285137952935mm" y1="143.29999999999998mm" y2="143.29999999999998mm"/><line x1="294.72285137952935mm" x2="294.72285137952935mm" y1="143.29999999999998mm" y2="105.19999999999999mm"/><line x1="5mm" x2="43.099999999999994mm" y1="155.29999999999998mm" y2="155.29999999999998mm"/><line x1="43.099999999999994mm" x2="43.099999999999994mm" y1="155.29999999999998mm" y2="160.29999999999998mm"/><line x1="43.099999999999994mm" x2="5mm" y1="160.29999999999998mm" y2="160.29999999999998mm"/><line x1="5mm" x2="5mm" y1="160.29999999999998mm" y2="155.29999999999998mm"/><line x1="5mm" x2="43.099999999999994mm" y1="165.29999999999998mm" y2="165.29999999999998mm"/><line x1="43.099999999999994mm" x2="43.099999999999994mm" y1="165.29999999999998mm" y2="170.29999999999998mm"/><line x1="43.099999999999994mm" x2="5mm" y1="170.29999999999998mm" y2="170.29999999999998mm"/><line x1="5mm" x2="5mm" y1="170.29999999999998mm" y2="165.29999999999998mm"/><line x1="5mm" x2="43.099999999999994mm" y1="175.29999999999998mm" y2="175.29999999999998mm"/><line x1="43.099999999999994mm" x2="43.099999999999994mm" y1="175.29999999999998mm" y2="180.29999999999998mm"/><line x1="43.099999999999994mm" x2="5mm" y1="180.29999999999998mm" y2="180.29999999999998mm"/><line x1="5mm" x2="5mm" y1="180.29999999999998mm" y2="175.29999999999998mm"/><line x1="48.099999999999994mm" x2="60.68163881942085mm" y1="155.29999999999998mm" y2="155.29999999999998mm"/><line x1="60.68163881942085mm" x2="53.099999999999994mm" y1="155.29999999999998mm" y2="193.39999999999998mm"/><line x1="53.099999999999994mm" x2="48.099999999999994mm" y1="193.39999999999998mm" y2="193.39999999999998mm"/><line x1="48.099999999999994mm" x2="48.099999999999994mm" y1="193.39999999999998mm" y2="155.29999999999998mm"/><line x1="65.68163881942084mm" x2="70.68163881942084mm" y1="155.29999999999998mm" y2="155.29999999999998mm"/><line x1="70.68163881942084mm" x2="70.68163881942084mm" y1="155.29999999999998mm" y2="193.39999999999998mm"/><line x1="70.68163881942084mm" x2="58.09999999999999mm" y1="193.39999999999998mm" y2="193.39999999999998mm"/><line x1="58.09999999999999mm" x2="65.68163881942084mm" y1="193.39999999999998mm" y2="155.29999999999998mm"/><line x1="75.68163881942084mm" x2="88.26327763884169mm" y1="155.29999999999998mm" y2="155.29999999999998mm"/><line x1="88.26327763884169mm" x2="80.68163881942084mm" y1="155.29999999999998mm" y2="193.39999999999998mm"/><line x1="80.68163881942084mm" x2="75.68163881942084mm" y1="193.39999999999998mm" y2="193.39999999999998mm"/><line x1="75.68163881942084mm" x2="75.68163881942084mm" y1="193.39999999999998mm" y2="155.29999999999998mm"/><line x1="100.84491645826255mm" x2="138.94491645826253mm" y1="155.29999999999998mm" y2="155.29999999999998mm"/><line x1="138.94491645826253mm" x2="138.94491645826253mm" y1="155.29999999999998mm" y2="160.29999999999998mm"/><line x1="138.94491645826253mm" x2="100.84491645826255mm" y1="160.29999999999998mm" y2="160.29999999999998mm"/><line x1="100.84491645826255mm" x2="100.84491645826255mm" y1="160.29999999999998mm" y2="155.29999999999998mm"/><line x1="100.84491645826255mm" x2="138.94491645826253mm" y1="165.29999999999998mm" y2="165.29999999999998mm"/><line x1="138.94491645826253mm" x2="138.94491645826253mm" y1="165.29999999999998mm" y2="170.29999999999998mm"/><line x1="138.94491645826253mm" x2="100.84491645826255mm" y1="170.29999999999998mm" y2="170.29999999999998mm"/><line x1="100.84491645826255mm" x2="100.84491645826255mm" y1="170.29999999999998mm" y2="165.29999999999998mm"/><line x1="100.84491645826255mm" x2="138.94491645826253mm" y1="175.29999999999998mm" y2="175.29999999999998mm"/><line x1="138.94491645826253mm" x2="138.94491645826253mm" y1="175.29999999999998mm" y2="180.29999999999998mm"/><line x1="138.94491645826253mm" x2="100.84491645826255mm" y1="180.29999999999998mm" y2="180.29999999999998mm"/><line x1="100.84491645826255mm" x2="100.84491645826255mm" y1="180.29999999999998mm" y2="175.29999999999998mm"/><line x1="143.94491645826253mm" x2="151.50635834169174mm" y1="155.29999999999998mm" y2="155.29999999999998mm"/><line x1="151.50635834169174mm" x2="148.94491645826253mm" y1="155.29999999999998mm" y2="193.39999999999998mm"/><line x1="148.94491645826253mm" x2="143.94491645826253mm" y1="193.39999999999998mm" y2="193.39999999999998mm"/><line x1="143.94491645826253mm" x2="143.94491645826253mm" y1="193.39999999999998mm" y2="155.29999999999998mm"/><line x1="156.50635834169174mm" x2="161.50635834169174mm" y1="155.29999999999998mm" y2="155.29999999999998mm"/><line x1="161.50635834169174mm" x2="161.50635834169174mm" y1="155.29999999999998mm" y2="193.39999999999998mm"/><line x1="161.50635834169174mm" x2="153.94491645826253mm" y1="193.39999999999998mm" y2="193.39999999999998mm"/><line x1="153.94491645826253mm" x2="156.50635834169174mm" y1="193.39999999999998mm" y2="155.29999999999998mm"/><line x1="166.50635834169174mm" x2="174.06780022512095mm" y1="155.29999999999998mm" y2="155.29999999999998mm"/><line x1="174.06780022512095mm" x2="171.50635834169174mm" y1="155.29999999999998mm" y2="193.39999999999998mm"/><line x1="171.50635834169174mm" x2="166.50635834169174mm" y1="193.39999999999998mm" y2="193.39999999999998mm"/><line x1="166.50635834169174mm" x2="166.50635834169174mm" y1="193.39999999999998mm" y2="155.29999999999998mm"/><line x1="181.62924210855016mm" x2="219.72924210855015mm" y1="155.29999999999998mm" y2="155.29999999999998mm"/><line x1="219.72924210855015mm" x2="219.72924210855015mm" y1="155.29999999999998mm" y2="160.29999999999998mm"/><line x1="219.72924210855015mm" x2="181.62924210855016mm" y1="160.29999999999998mm" y2="160.29999999999998mm"/><line x1="181.62924210855016mm" x2="181.62924210855016mm" y1="160.29999999999998mm" y2="155.29999999999998mm"/><line x1="181.62924210855016mm" x2="219.72924210855015mm" y1="165.29999999999998mm" y2="165.29999999999998mm"/><line x1="219.72924210855015mm" x2="219.72924210855015mm" y1="165.29999999999998mm" y2="170.29999999999998mm"/><line x1="219.72924210855015mm" x2="181.62924210855016mm" y1="170.29999999999998mm" y2="170.29999999999998mm"/><line x1="181.62924210855016mm" x2="181.62924210855016mm" y1="170.29999999999998mm" y2="165.29999999999998mm"/><line x1="181.62924210855016mm" x2="219.72924210855015mm" y1="175.29999999999998mm" y2="175.29999999999998mm"/><line x1="219.72924210855015mm" x2="219.72924210855015mm" y1="175.29999999999998mm" y2="180.29999999999998mm"/><line x1="219.72924210855015mm" x2="181.62924210855016mm" y1="180.29999999999998mm" y2="180.29999999999998mm"/><line x1="181.62924210855016mm" x2="181.62924210855016mm" y1="180.29999999999998mm" y2="175.29999999999998mm"/><line x1="224.72924210855015mm" x2="232.29068399197936mm" y1="155.29999999999998mm" y2="155.29999999999998mm"/><line x1="232.29068399197936mm" x2="229.72924210855015mm" y1="155.29999999999998mm" y2="193.39999999999998mm"/><line x1="229.72924210855015mm" x2="224.72924210855015mm" y1="193.39999999999998mm" y2="193.39999999999998mm"/><line x1="224.72924210855015mm" x2="224.72924210855015mm" y1="193.39999999999998mm" y2="155.29999999999998mm"/><line x1="237.29068399197936mm" x2="242.29068399197936mm" y1="155.29999999999998mm" y2="155.29999999999998mm"/><line x1="242.29068399197936mm" x2="242.29068399197936mm" y1="155.29999999999998mm" y2="193.39999999999998mm"/><line x1="242.29068399197936mm" x2="234.72924210855015mm" y1="193.39999999999998mm" y2="193.39999999999998mm"/><line x1="234.72924210855015mm" x2="237.29068399197936mm" y1="193.39999999999998mm" y2="155.29999999999998mm"/><line x1="247.29068399197936mm" x2="254.85212587540857mm" y1="155.29999999999998mm" y2="155.29999999999998mm"/><line x1="254.85212587540857mm" x2="252.29068399197936mm" y1="155.29999999999998mm" y2="193.39999999999998mm"/><line x1="252.29068399197936mm" x2="247.29068399197936mm" y1="193.39999999999998mm" y2="193.39999999999998mm"/><line x1="247.29068399197936mm" x2="247.29068399197936mm" y1="193.39999999999998mm" y2="155.29999999999998mm"/><line x1="262.41356775883776mm" x2="300.5135677588378mm" y1="155.29999999999998mm" y2="155.29999999999998mm"/><line x1="300.5135677588378mm" x2="300.5135677588378mm" y1="155.29999999999998mm" y2="160.29999999999998mm"/><line x1="300.5135677588378mm" x2="262.41356775883776mm" y1="160.29999999999998mm" y2="160.29999999999998mm"/><line x1="262.41356775883776mm" x2="262.41356775883776mm" y1="160.29999999999998mm" y2="155.29999999999998mm"/><line x1="262.41356775883776mm" x2="300.5135677588378mm" y1="165.29999999999998mm" y2="165.29999999999998mm"/><line x1="300.5135677588378mm" x2="300.5135677588378mm" y1="165.29999999999998mm" y2="170.29999999999998mm"/><line x1="300.5135677588378mm" x2="262.41356775883776mm" y1="170.29999999999998mm" y2="170.29999999999998mm"/><line x1="262.41356775883776mm" x2="262.41356775883776mm" y1="170.29999999999998mm" y2="165.29999999999998mm"/><line x1="262.41356775883776mm" x2="300.5135677588378mm" y1="175.29999999999998mm" y2="175.29999999999998mm"/><line x1="300.5135677588378mm" x2="300.5135677588378mm" y1="175.29999999999998mm" y2="180.29999999999998mm"/><line x1="300.5135677588378mm" x2="262.41356775883776mm" y1="180.29999999999998mm" y2="180.29999999999998mm"/><line x1="262.41356775883776mm" x2="262.41356775883776mm" y1="180.29999999999998mm" y2="175.29999999999998mm"/><line x1="5mm" x2="17.58163881942085mm" y1="205.39999999999998mm" y2="205.39999999999998mm"/><line x1="17.58163881942085mm" x2="10mm" y1="205.39999999999998mm" y2="243.49999999999997mm"/><line x1="10mm" x2="5mm" y1="243.49999999999997mm" y2="243.49999999999997mm"/><line x1="5mm" x2="5mm" y1="243.49999999999997mm" y2="205.39999999999998mm"/><line x1="22.58163881942085mm" x2="27.58163881942085mm" y1="205.39999999999998mm" y2="205.39999999999998mm"/><line x1="27.58163881942085mm" x2="27.58163881942085mm" y1="205.39999999999998mm" y2="243.49999999999997mm"/><line x1="27.58163881942085mm" x2="15mm" y1="243.49999999999997mm" y2="243.49999999999997mm"/><line x1="15mm" x2="22.58163881942085mm" y1="243.49999999999997mm" y2="205.39999999999998mm"/><line x1="32.581638819420846mm" x2="45.1632776388417mm" y1="205.39999999999998mm" y2="205.39999999999998mm"/><line x1="45.1632776388417mm" x2="37.581638819420846mm" y1="205.39999999999998mm" y2="243.49999999999997mm"/><line x1="37.581638819420846mm" x2="32.581638819420846mm" y1="243.49999999999997mm" y2="243.49999999999997mm"/><line x1="32.581638819420846mm" x2="32.581638819420846mm" y1="243.49999999999997mm" y2="205.39999999999998mm"/><line x1="57.74491645826255mm" x2="95.84491645826255mm" y1="205.39999999999998mm" y2="205.39999999999998mm"/><line x1="95.84491645826255mm" x2="95.84491645826255mm" y1="205.39999999999998mm" y2="210.39999999999998mm"/><line x1="95.84491645826255mm" x2="57.74491645826255mm" y1="210.39999999999998mm" y2="210.39999999999998mm"/><line x1="57.74491645826255mm" x2="57.74491645826255mm" y1="210.39999999999998mm" y2="205.39999999999998mm"/><line x1="57.74491645826255mm" x2="95.84491645826255mm" y1="215.39999999999998mm" y2="215.39999999999998mm"/><line x1="95.84491645826255mm" x2="95.84491645826255mm" y1="215.39999999999998mm" y2="220.39999999999998mm"/><line x1="95.84491645826255mm" x2="57.74491645826255mm" y1="220.39999999999998mm" y2="220.39999999999998mm"/><line x1="57.74491645826255mm" x2="57.74491645826255mm" y1="220.39999999999998mm" y2="215.39999999999998mm"/><line x1="57.74491645826255mm" x2="95.84491645826255mm" y1="225.39999999999998mm" y2="225.39999999999998mm"/><line x1="95.84491645826255mm" x2="95.84491645826255mm" y1="225.39999999999998mm" y2="230.39999999999998mm"/><line x1="95.84491645826255mm" x2="57.74491645826255mm" y1="230.39999999999998mm" y2="230.39999999999998mm"/><line x1="57.74491645826255mm" x2="57.74491645826255mm" y1="230.39999999999998mm" y2="225.39999999999998mm"/><line x1="100.84491645826255mm" x2="118.15420007895412mm" y1="205.39999999999998mm" y2="205.39999999999998mm"/><line x1="118.15420007895412mm" x2="105.84491645826255mm" y1="205.39999999999998mm" y2="243.49999999999997mm"/><line x1="105.84491645826255mm" x2="100.84491645826255mm" y1="243.49999999999997mm" y2="243.49999999999997mm"/><line x1="100.84491645826255mm" x2="100.84491645826255mm" y1="243.49999999999997mm" y2="205.39999999999998mm"/><line x1="123.15420007895412mm" x2="128.15420007895412mm" y1="205.39999999999998mm" y2="205.39999999999998mm"/><line x1="128.15420007895412mm" x2="128.15420007895412mm" y1="205.39999999999998mm" y2="243.49999999999997mm"/><line x1="128.15420007895412mm" x2="110.84491645826255mm" y1="243.49999999999997mm" y2="243.49999999999997mm"/><line x1="110.84491645826255mm" x2="123.15420007895412mm" y1="243.49999999999997mm" y2="205.39999999999998mm"/><line x1="133.15420007895412mm" x2="150.46348369964568mm" y1="205.39999999999998mm" y2="205.39999999999998mm"/><line x1="150.46348369964568mm" x2="138.15420007895412mm" y1="205.39999999999998mm" y2="243.49999999999997mm"/><line x1="138.15420007895412mm" x2="133.15420007895412mm" y1="243.49999999999997mm" y2="243.49999999999997mm"/><line x1="133.15420007895412mm" x2="133.15420007895412mm" y1="243.49999999999997mm" y2="205.39999999999998mm"/><line x1="167.77276732033727mm" x2="205.87276732033726mm" y1="205.39999999999998mm" y2="205.39999999999998mm"/><line x1="205.87276732033726mm" x2="205.87276732033726mm" y1="205.39999999999998mm" y2="210.39999999999998mm"/><line x1="205.87276732033726mm" x2="167.77276732033727mm" y1="210.39999999999998mm" y2="215.49695952526847mm"/><line x1="167.77276732033727mm" x2="167.77276732033727mm" y1="215.49695952526847mm" y2="205.39999999999998mm"/><line x1="167.77276732033727mm" x2="205.87276732033726mm" y1="220.49695952526847mm" y2="215.39999999999998mm"/><line x1="205.87276732033726mm" x2="205.87276732033726mm" y1="215.39999999999998mm" y2="225.49695952526847mm"/><line x1="205.87276732033726mm" x2="167.77276732033727mm" y1="225.49695952526847mm" y2="225.49695952526847mm"/><line x1="167.77276732033727mm" x2="167.77276732033727mm" y1="225.49695952526847mm" y2="220.49695952526847mm"/><line x1="167.77276732033727mm" x2="205.87276732033726mm" y1="230.49695952526847mm" y2="230.49695952526847mm"/><line x1="205.87276732033726mm" x2="205.87276732033726mm" y1="230.49695952526847mm" y2="235.49695952526847mm"/><line x1="205.87276732033726mm" x2="167.77276732033727mm" y1="235.49695952526847mm" y2="240.59391905053695mm"/><line x1="167.77276732033727mm" x2="167.77276732033727mm" y1="240.59391905053695mm" y2="230.49695952526847mm"/><line x1="210.87276732033726mm" x2="223.4544061397581mm" y1="205.39999999999998mm" y2="205.39999999999998mm"/><line x1="223.4544061397581mm" x2="215.87276732033726mm" y1="205.39999999999998mm" y2="243.49999999999997mm"/><line x1="215.87276732033726mm" x2="210.87276732033726mm" y1="243.49999999999997mm" y2="243.49999999999997mm"/><line x1="210.87276732033726mm" x2="210.87276732033726mm" y1="243.49999999999997mm" y2="205.39999999999998mm"/><line x1="228.4544061397581mm" x2="233.4544061397581mm" y1="205.39999999999998mm" y2="205.39999999999998mm"/><line x1="233.4544061397581mm" x2="233.4544061397581mm" y1="205.39999999999998mm" y2="243.49999999999997mm"/><line x1="233.4544061397581mm" x2="220.87276732033726mm" y1="243.49999999999997mm" y2="243.49999999999997mm"/><line x1="220.87276732033726mm" x2="228.4544061397581mm" y1="243.49999999999997mm" y2="205.39999999999998mm"/><line x1="238.4544061397581mm" x2="251.03604495917895mm" y1="205.39999999999998mm" y2="205.39999999999998mm"/><line x1="251.03604495917895mm" x2="243.4544061397581mm" y1="205.39999999999998mm" y2="243.49999999999997mm"/><line x1="243.4544061397581mm" x2="238.4544061397581mm" y1="243.49999999999997mm" y2="243.49999999999997mm"/><line x1="238.4544061397581mm" x2="238.4544061397581mm" y1="243.49999999999997mm" y2="205.39999999999998mm"/><line x1="263.6176837785998mm" x2="301.71768377859985mm" y1="205.39999999999998mm" y2="205.39999999999998mm"/><line x1="301.71768377859985mm" x2="301.71768377859985mm" y1="205.39999999999998mm" y2="210.39999999999998mm"/><line x1="301.71768377859985mm" x2="263.6176837785998mm" y1="210.39999999999998mm" y2="215.49695952526847mm"/><line x1="263.6176837785998mm" x2="263.6176837785998mm" y1="215.49695952526847mm" y2="205.39999999999998mm"/><line x1="263.6176837785998mm" x2="301.71768377859985mm" y1="220.49695952526847mm" y2="215.39999999999998mm"/><line x1="301.71768377859985mm" x2="301.71768377859985mm" y1="215.39999999999998mm" y2="225.49695952526847mm"/><line x1="301.71768377859985mm" x2="263.6176837785998mm" y1="225.49695952526847mm" y2="225.49695952526847mm"/><line x1="263.6176837785998mm" x2="263.6176837785998mm" y1="225.49695952526847mm" y2="220.49695952526847mm"/><line x1="263.6176837785998mm" x2="301.71768377859985mm" y1="230.49695952526847mm" y2="230.49695952526847mm"/><line x1="301.71768377859985mm" x2="301.71768377859985mm" y1="230.49695952526847mm" y2="235.49695952526847mm"/><line x1="301.71768377859985mm" x2="263.6176837785998mm" y1="235.49695952526847mm" y2="240.59391905053695mm"/><line x1="263.6176837785998mm" x2="263.6176837785998mm" y1="240.59391905053695mm" y2="230.49695952526847mm"/><line x1="5mm" x2="12.561441883429207mm" y1="255.49999999999997mm" y2="255.49999999999997mm"/><line x1="12.561441883429207mm" x2="10mm" y1="255.49999999999997mm" y2="293.59999999999997mm"/><line x1="10mm" x2="5mm" y1="293.59999999999997mm" y2="293.59999999999997mm"/><line x1="5mm" x2="5mm" y1="293.59999999999997mm" y2="255.49999999999997mm"/><line x1="17.561441883429207mm" x2="22.561441883429207mm" y1="255.49999999999997mm" y2="255.49999999999997mm"/><line x1="22.561441883429207mm" x2="22.561441883429207mm" y1="255.49999999999997mm" y2="293.59999999999997mm"/><line x1="22.561441883429207mm" x2="15mm" y1="293.59999999999997mm" y2="293.59999999999997mm"/><line x1="15mm" x2="17.561441883429207mm" y1="293.59999999999997mm" y2="255.49999999999997mm"/><line x1="27.561441883429207mm" x2="35.122883766858415mm" y1="255.49999999999997mm" y2="255.49999999999997mm"/><line x1="35.122883766858415mm" x2="32.56144188342921mm" y1="255.49999999999997mm" y2="293.59999999999997mm"/><line x1="32.56144188342921mm" x2="27.561441883429207mm" y1="293.59999999999997mm" y2="293.59999999999997mm"/><line x1="27.561441883429207mm" x2="27.561441883429207mm" y1="293.59999999999997mm" y2="255.49999999999997mm"/><line x1="42.68432565028762mm" x2="80.78432565028761mm" y1="255.49999999999997mm" y2="255.49999999999997mm"/><line x1="80.78432565028761mm" x2="80.78432565028761mm" y1="255.49999999999997mm" y2="260.5mm"/><line x1="80.78432565028761mm" x2="42.68432565028762mm" y1="260.5mm" y2="265.59695952526846mm"/><line x1="42.68432565028762mm" x2="42.68432565028762mm" y1="265.59695952526846mm" y2="255.49999999999997mm"/><line x1="42.68432565028762mm" x2="80.78432565028761mm" y1="270.59695952526846mm" y2="265.5mm"/><line x1="80.78432565028761mm" x2="80.78432565028761mm" y1="265.5mm" y2="275.59695952526846mm"/><line x1="80.78432565028761mm" x2="42.68432565028762mm" y1="275.59695952526846mm" y2="275.59695952526846mm"/><line x1="42.68432565028762mm" x2="42.68432565028762mm" y1="275.59695952526846mm" y2="270.59695952526846mm"/><line x1="42.68432565028762mm" x2="80.78432565028761mm" y1="280.59695952526846mm" y2="280.59695952526846mm"/><line x1="80.78432565028761mm" x2="80.78432565028761mm" y1="280.59695952526846mm" y2="285.59695952526846mm"/><line x1="80.78432565028761mm" x2="42.68432565028762mm" y1="285.59695952526846mm" y2="290.6939190505369mm"/><line x1="42.68432565028762mm" x2="42.68432565028762mm" y1="290.6939190505369mm" y2="280.59695952526846mm"/><line x1="85.78432565028761mm" x2="93.34576753371682mm" y1="255.49999999999997mm" y2="255.49999999999997mm"/><line x1="93.34576753371682mm" x2="90.78432565028761mm" y1="255.49999999999997mm" y2="293.59999999999997mm"/><line x1="90.78432565028761mm" x2="85.78432565028761mm" y1="293.59999999999997mm" y2="293.59999999999997mm"/><line x1="85.78432565028761mm" x2="85.78432565028761mm" y1="293.59999999999997mm" y2="255.49999999999997mm"/><line x1="98.34576753371682mm" x2="103.34576753371682mm" y1="255.49999999999997mm" y2="255.49999999999997mm"/><line x1="103.34576753371682mm" x2="103.34576753371682mm" y1="255.49999999999997mm" y2="293.59999999999997mm"/><line x1="103.34576753371682mm" x2="95.78432565028761mm" y1="293.59999999999997mm" y2="293.59999999999997mm"/><line x1="95.78432565028761mm" x2="98.34576753371682mm" y1="293.59999999999997mm" y2="255.49999999999997mm"/><line x1="108.34576753371682mm" x2="115.90720941714603mm" y1="255.49999999999997mm" y2="255.49999999999997mm"/><line x1="115.90720941714603mm" x2="113.34576753371682mm" y1="255.49999999999997mm" y2="293.59999999999997mm"/><line x1="113.34576753371682mm" x2="108.34576753371682mm" y1="293.59999999999997mm" y2="293.59999999999997mm"/><line x1="108.34576753371682mm" x2="108.34576753371682mm" y1="293.59999999999997mm" y2="255.49999999999997mm"/><line x1="123.46865130057523mm" x2="161.56865130057523mm" y1="255.49999999999997mm" y2="255.49999999999997mm"/><line x1="161.56865130057523mm" x2="161.56865130057523mm" y1="255.49999999999997mm" y2="260.5mm"/><line x1="161.56865130057523mm" x2="123.46865130057523mm" y1="260.5mm" y2="265.59695952526846mm"/><line x1="123.46865130057523mm" x2="123.46865130057523mm" y1="265.59695952526846mm" y2="255.49999999999997mm"/><line x1="123.46865130057523mm" x2="161.56865130057523mm" y1="270.59695952526846mm" y2="265.5mm"/><line x1="161.56865130057523mm" x2="161.56865130057523mm" y1="265.5mm" y2="275.59695952526846mm"/><line x1="161.56865130057523mm" x2="123.46865130057523mm" y1="275.59695952526846mm" y2="275.59695952526846mm"/><line x1="123.46865130057523mm" x2="123.46865130057523mm" y1="275.59695952526846mm" y2="270.59695952526846mm"/><line x1="123.46865130057523mm" x2="161.56865130057523mm" y1="280.59695952526846mm" y2="280.59695952526846mm"/><line x1="161.56865130057523mm" x2="161.56865130057523mm" y1="280.59695952526846mm" y2="285.59695952526846mm"/><line x1="161.56865130057523mm" x2="123.46865130057523mm" y1="285.59695952526846mm" y2="290.6939190505369mm"/><line x1="123.46865130057523mm" x2="123.46865130057523mm" y1="290.6939190505369mm" y2="280.59695952526846mm"/><line x1="166.56865130057523mm" x2="179.15029011999607mm" y1="255.49999999999997mm" y2="255.49999999999997mm"/><line x1="179.15029011999607mm" x2="171.56865130057523mm" y1="255.49999999999997mm" y2="293.59999999999997mm"/><line x1="171.56865130057523mm" x2="166.56865130057523mm" y1="293.59999999999997mm" y2="293.59999999999997mm"/><line x1="166.56865130057523mm" x2="166.56865130057523mm" y1="293.59999999999997mm" y2="255.49999999999997mm"/><line x1="184.15029011999607mm" x2="189.15029011999607mm" y1="255.49999999999997mm" y2="255.49999999999997mm"/><line x1="189.15029011999607mm" x2="189.15029011999607mm" y1="255.49999999999997mm" y2="293.59999999999997mm"/><line x1="189.15029011999607mm" x2="176.56865130057523mm" y1="293.59999999999997mm" y2="293.59999999999997mm"/><line x1="176.56865130057523mm" x2="184.15029011999607mm" y1="293.59999999999997mm" y2="255.49999999999997mm"/><line x1="194.15029011999607mm" x2="206.73192893941692mm" y1="255.49999999999997mm" y2="255.49999999999997mm"/><line x1="206.73192893941692mm" x2="199.15029011999607mm" y1="255.49999999999997mm" y2="293.59999999999997mm"/><line x1="199.15029011999607mm" x2="194.15029011999607mm" y1="293.59999999999997mm" y2="293.59999999999997mm"/><line x1="194.15029011999607mm" x2="194.15029011999607mm" y1="293.59999999999997mm" y2="255.49999999999997mm"/><line x1="219.3135677588378mm" x2="257.41356775883776mm" y1="255.49999999999997mm" y2="255.49999999999997mm"/><line x1="257.41356775883776mm" x2="257.41356775883776mm" y1="255.49999999999997mm" y2="260.5mm"/><line x1="257.41356775883776mm" x2="219.3135677588378mm" y1="260.5mm" y2="265.59695952526846mm"/><line x1="219.3135677588378mm" x2="219.3135677588378mm" y1="265.59695952526846mm" y2="255.49999999999997mm"/><line x1="219.3135677588378mm" x2="257.41356775883776mm" y1="270.59695952526846mm" y2="265.5mm"/><line x1="257.41356775883776mm" x2="257.41356775883776mm" y1="265.5mm" y2="275.59695952526846mm"/><line x1="257.41356775883776mm" x2="219.3135677588378mm" y1="275.59695952526846mm" y2="275.59695952526846mm"/><line x1="219.3135677588378mm" x2="219.3135677588378mm" y1="275.59695952526846mm" y2="270.59695952526846mm"/><line x1="219.3135677588378mm" x2="257.41356775883776mm" y1="280.59695952526846mm" y2="280.59695952526846mm"/><line x1="257.41356775883776mm" x2="257.41356775883776mm" y1="280.59695952526846mm" y2="285.59695952526846mm"/><line x1="257.41356775883776mm" x2="219.3135677588378mm" y1="285.59695952526846mm" y2="290.6939190505369mm"/><line x1="219.3135677588378mm" x2="219.3135677588378mm" y1="290.6939190505369mm" y2="280.59695952526846mm"/><line x1="262.41356775883776mm" x2="279.72285137952935mm" y1="255.49999999999997mm" y2="255.49999999999997mm"/><line x1="279.72285137952935mm" x2="267.41356775883776mm" y1="255.49999999999997mm" y2="293.59999999999997mm"/><line x1="267.41356775883776mm" x2="262.41356775883776mm" y1="293.59999999999997mm" y2="293.59999999999997mm"/><line x1="262.41356775883776mm" x2="262.41356775883776mm" y1="293.59999999999997mm" y2="255.49999999999997mm"/><line x1="284.72285137952935mm" x2="289.72285137952935mm" y1="255.49999999999997mm" y2="255.49999999999997mm"/><line x1="289.72285137952935mm" x2="289.72285137952935mm" y1="255.49999999999997mm" y2="293.59999999999997mm"/><line x1="289.72285137952935mm" x2="272.41356775883776mm" y1="293.59999999999997mm" y2="293.59999999999997mm"/><line x1="272.41356775883776mm" x2="284.72285137952935mm" y1="293.59999999999997mm" y2="255.49999999999997mm"/><line x1="294.72285137952935mm" x2="312.03213500022093mm" y1="255.49999999999997mm" y2="255.49999999999997mm"/><line x1="312.03213500022093mm" x2="299.72285137952935mm" y1="255.49999999999997mm" y2="293.59999999999997mm"/><line x1="299.72285137952935mm" x2="294.72285137952935mm" y1="293.59999999999997mm" y2="293.59999999999997mm"/><line x1="294.72285137952935mm" x2="294.72285137952935mm" y1="293.59999999999997mm" y2="255.49999999999997mm"/></svg>