<?xml version="1.0" encoding="utf-8"?>
<!-- Generator: Adobe Illustrator 22.0.1, SVG Export Plug-In . SVG Version: 6.00 Build 0)  -->
<svg version="1.1" id="Layer_1" xmlns="http://www.w3.org/2000/svg" xmlns:xlink="http://www.w3.org/1999/xlink" x="0px" y="0px"
	 viewBox="0 0 864 1728" style="enable-background:new 0 0 864 1728;" xml:space="preserve">
<style type="text/css">
	.st0{fill:#FFFFFF;stroke:#000000;stroke-miterlimit:10;}
</style>
<rect x="75" y="48.2" class="st0" width="106.3" height="524.4"/>
<rect x="560.2" y="48.2" class="st0" width="106.3" height="524.4"/>
<rect x="437.6" y="40.5" class="st0" width="106.3" height="524.4"/>
<rect x="315" y="48.2" class="st0" width="106.3" height="524.4"/>
<rect x="192.5" y="48.2" class="st0" width="106.3" height="524.4"/>
<rect x="682.7" y="40.5" class="st0" width="106.3" height="524.4"/>
<rect x="75" y="605.2" class="st0" width="106.3" height="524.4"/>
<rect x="560.2" y="605.2" class="st0" width="106.3" height="524.4"/>
<rect x="437.6" y="597.5" class="st0" width="106.3" height="524.4"/>
<rect x="315" y="605.2" class="st0" width="106.3" height="524.4"/>
<rect x="192.5" y="605.2" class="st0" width="106.3" height="524.4"/>
<rect x="682.7" y="597.5" class="st0" width="106.3" height="524.4"/>
<rect x="77.5" y="1162.2" class="st0" width="106.3" height="524.4"/>
<rect x="562.7" y="1162.2" class="st0" width="106.3" height="524.4"/>
<rect x="440.1" y="1154.5" class="st0" width="106.3" height="524.4"/>
<rect x="317.5" y="1162.2" class="st0" width="106.3" height="524.4"/>
<rect x="195" y="1162.2" class="st0" width="106.3" height="524.4"/>
<rect x="685.3" y="1154.5" class="st0" width="106.3" height="524.4"/>
</svg>
