<?xml version="1.0" encoding="utf-8"?>
<!-- Generator: Adobe Illustrator 22.0.1, SVG Export Plug-In . SVG Version: 6.00 Build 0)  -->
<svg version="1.1" id="Layer_1" xmlns="http://www.w3.org/2000/svg" xmlns:xlink="http://www.w3.org/1999/xlink" x="0px" y="0px"
	 viewBox="0 0 864 1728" style="enable-background:new 0 0 864 1728;" xml:space="preserve">
<style type="text/css">
	.st0{fill:#FFFFFF;stroke:#000000;stroke-miterlimit:10;}
</style>
<rect x="22" y="16.2" class="st0" width="106.3" height="524.4"/>
<rect x="492.2" y="14.2" class="st0" width="106.3" height="524.4"/>
<rect x="373.8" y="15.2" class="st0" width="106.3" height="524.4"/>
<rect x="257" y="16.2" class="st0" width="106.3" height="524.4"/>
<rect x="139.5" y="16.2" class="st0" width="106.3" height="524.4"/>
<rect x="610.5" y="16.2" class="st0" width="106.3" height="524.4"/>
<rect x="728.9" y="16.2" class="st0" width="106.3" height="524.4"/>
<rect x="22" y="549.2" class="st0" width="106.3" height="524.4"/>
<rect x="492.2" y="547.2" class="st0" width="106.3" height="524.4"/>
<rect x="373.8" y="548.2" class="st0" width="106.3" height="524.4"/>
<rect x="257" y="549.2" class="st0" width="106.3" height="524.4"/>
<rect x="139.5" y="549.2" class="st0" width="106.3" height="524.4"/>
<rect x="610.5" y="549.2" class="st0" width="106.3" height="524.4"/>
<rect x="728.9" y="549.2" class="st0" width="106.3" height="524.4"/>
<rect x="24" y="1083.2" class="st0" width="106.3" height="524.4"/>
<rect x="494.2" y="1081.2" class="st0" width="106.3" height="524.4"/>
<rect x="375.8" y="1082.2" class="st0" width="106.3" height="524.4"/>
<rect x="259" y="1083.2" class="st0" width="106.3" height="524.4"/>
<rect x="141.5" y="1083.2" class="st0" width="106.3" height="524.4"/>
<rect x="612.5" y="1083.2" class="st0" width="106.3" height="524.4"/>
<rect x="730.9" y="1083.2" class="st0" width="106.3" height="524.4"/>
<rect x="167.8" y="1614.6" class="st0" width="524.4" height="106.3"/>
</svg>
