<?xml version="1.0" encoding="utf-8"?>
<!-- Generator: Adobe Illustrator 22.0.1, SVG Export Plug-In . SVG Version: 6.00 Build 0)  -->
<svg version="1.1" id="Layer_1" xmlns="http://www.w3.org/2000/svg" xmlns:xlink="http://www.w3.org/1999/xlink" x="0px" y="0px"
	 viewBox="0 0 864 1728" style="enable-background:new 0 0 864 1728;" xml:space="preserve">
<style type="text/css">
	.st0{fill:#FFFFFF;stroke:#000000;stroke-miterlimit:10;}
</style>
<rect x="32.8" y="9.8" class="st0" width="117.6" height="524.4"/>
<rect x="561.1" y="9.8" class="st0" width="117.6" height="524.4"/>
<rect x="428.3" y="10.4" class="st0" width="117.6" height="524.4"/>
<rect x="295.9" y="9.4" class="st0" width="117.6" height="524.4"/>
<rect x="165.8" y="9.8" class="st0" width="117.6" height="524.4"/>
<rect x="691.7" y="8.8" class="st0" width="117.6" height="524.4"/>
<rect x="33.8" y="539.8" class="st0" width="117.6" height="524.4"/>
<rect x="562.1" y="539.8" class="st0" width="117.6" height="524.4"/>
<rect x="429.3" y="540.4" class="st0" width="117.6" height="524.4"/>
<rect x="296.9" y="539.4" class="st0" width="117.6" height="524.4"/>
<rect x="166.8" y="539.8" class="st0" width="117.6" height="524.4"/>
<rect x="692.7" y="538.8" class="st0" width="117.6" height="524.4"/>
<rect x="33.8" y="1071.8" class="st0" width="117.6" height="524.4"/>
<rect x="562.1" y="1071.8" class="st0" width="117.6" height="524.4"/>
<rect x="429.3" y="1072.4" class="st0" width="117.6" height="524.4"/>
<rect x="296.9" y="1071.4" class="st0" width="117.6" height="524.4"/>
<rect x="166.8" y="1071.8" class="st0" width="117.6" height="524.4"/>
<rect x="692.7" y="1070.8" class="st0" width="117.6" height="524.4"/>
<rect x="282.2" y="1602.4" class="st0" width="524.4" height="117.6"/>
</svg>
