<?xml version="1.0" encoding="utf-8"?>
<!-- Generator: Adobe Illustrator 22.0.1, SVG Export Plug-In . SVG Version: 6.00 Build 0)  -->
<svg version="1.1" id="Layer_1" xmlns="http://www.w3.org/2000/svg" xmlns:xlink="http://www.w3.org/1999/xlink" x="0px" y="0px"
	 viewBox="0 0 864 1728" style="enable-background:new 0 0 864 1728;" xml:space="preserve">
<style type="text/css">
	.st0{fill:#FFFFFF;stroke:#000000;stroke-miterlimit:10;}
</style>
<rect x="29.8" y="41.8" class="st0" width="117.6" height="524.4"/>
<rect x="585.1" y="41.8" class="st0" width="117.6" height="524.4"/>
<rect x="446.3" y="51.4" class="st0" width="117.6" height="524.4"/>
<rect x="301.9" y="51.4" class="st0" width="117.6" height="524.4"/>
<rect x="165.8" y="41.8" class="st0" width="117.6" height="524.4"/>
<rect x="726.7" y="41.8" class="st0" width="117.6" height="524.4"/>
<rect x="24.7" y="597" class="st0" width="117.6" height="524.4"/>
<rect x="580" y="597" class="st0" width="117.6" height="524.4"/>
<rect x="441.2" y="606.6" class="st0" width="117.6" height="524.4"/>
<rect x="296.9" y="606.6" class="st0" width="117.6" height="524.4"/>
<rect x="160.8" y="597" class="st0" width="117.6" height="524.4"/>
<rect x="721.6" y="597" class="st0" width="117.6" height="524.4"/>
<rect x="24.7" y="1156.1" class="st0" width="117.6" height="524.4"/>
<rect x="580" y="1156.1" class="st0" width="117.6" height="524.4"/>
<rect x="441.2" y="1165.6" class="st0" width="117.6" height="524.4"/>
<rect x="296.9" y="1165.6" class="st0" width="117.6" height="524.4"/>
<rect x="160.8" y="1156.1" class="st0" width="117.6" height="524.4"/>
<rect x="721.6" y="1156.1" class="st0" width="117.6" height="524.4"/>
</svg>
